<svg width="32" height="32" xmlns="http://www.w3.org/2000/svg">

 <g>
  <title>background</title>
  <rect fill="none" id="canvas_background" height="402" width="582" y="-1" x="-1"/>
 </g>
 <g>
  <title>Layer 1</title>
  <path fill="#ffffff" id="svg_1" d="m30.8,2.6l-1.4,-1.4c-0.3,-0.3 -0.9,-0.4 -1.3,-0.1l-4.3,2.9c-0.2,0.2 -0.4,0.4 -0.4,0.7c0,0.3 0.1,0.6 0.3,0.8l0,0l-5.3,5.3l-16.6,5.1c-0.4,0.1 -0.7,0.5 -0.7,0.9c0,0.4 0.2,0.8 0.6,1l9,3.5l3.5,9c0.1,0.4 0.5,0.6 0.9,0.6c0,0 0,0 0,0c0.4,0 0.8,-0.3 0.9,-0.7l5.4,-17.2l-2.5,2.5c-0.4,0.4 -1,0.4 -1.4,0c-0.2,-0.2 -0.3,-0.5 -0.3,-0.7l7.9,-7.9l0.7,0.7c0,0 0,0 0,0l0.7,0.7c0.2,0.2 0.4,0.3 0.7,0.3c0,0 0.1,0 0.1,0c0.3,0 0.6,-0.2 0.7,-0.4l2.9,-4.3c0.3,-0.4 0.3,-0.9 -0.1,-1.3zm-15,17.9c-0.2,0.2 -0.5,0.3 -0.7,0.3s-0.5,-0.1 -0.7,-0.3l-2.9,-2.9c-0.4,-0.4 -0.4,-1 0,-1.4s1,-0.4 1.4,0l2.9,2.9c0.4,0.4 0.4,1 0,1.4z"/>
 </g>
</svg>